<svg width="194" height="33" viewBox="0 0 194 33" fill="none" xmlns="http://www.w3.org/2000/svg">
<path d="M182.211 25.5V7.64399H186.387L186.819 11.424H186.927C187.431 10.272 187.995 9.39599 188.619 8.79599C189.267 8.19599 189.987 7.78799 190.779 7.57199C191.595 7.33199 192.507 7.21199 193.515 7.21199V12.36H192.219C191.403 12.36 190.671 12.456 190.023 12.648C189.399 12.816 188.859 13.104 188.403 13.512C187.971 13.896 187.635 14.412 187.395 15.06C187.179 15.684 187.071 16.464 187.071 17.4V25.5H182.211Z" fill="#FF8C00"/>
<path d="M171.568 25.932C169.744 25.932 168.124 25.548 166.708 24.78C165.316 24.012 164.224 22.932 163.432 21.54C162.64 20.148 162.244 18.552 162.244 16.752C162.244 14.88 162.628 13.236 163.396 11.82C164.188 10.38 165.28 9.25199 166.672 8.43599C168.088 7.61999 169.732 7.21199 171.604 7.21199C173.38 7.21199 174.94 7.59599 176.284 8.36399C177.628 9.13199 178.684 10.188 179.452 11.532C180.22 12.852 180.604 14.352 180.604 16.032C180.604 16.272 180.604 16.548 180.604 16.86C180.604 17.148 180.58 17.448 180.532 17.76H165.7V14.772H175.672C175.6 13.644 175.18 12.744 174.412 12.072C173.668 11.4 172.732 11.064 171.604 11.064C170.764 11.064 169.996 11.256 169.3 11.64C168.604 12 168.052 12.564 167.644 13.332C167.236 14.076 167.032 15.024 167.032 16.176V17.22C167.032 18.204 167.224 19.056 167.608 19.776C167.992 20.472 168.52 21.012 169.192 21.396C169.888 21.78 170.668 21.972 171.532 21.972C172.42 21.972 173.164 21.78 173.764 21.396C174.364 20.988 174.82 20.472 175.132 19.848H180.1C179.74 20.976 179.164 22.008 178.372 22.944C177.58 23.856 176.608 24.588 175.456 25.14C174.304 25.668 173.008 25.932 171.568 25.932Z" fill="#FF8C00"/>
<path d="M147.151 32.88L151.327 23.484H150.283L142.975 7.64398H148.267L153.451 19.2H153.559L158.167 7.64398H163.351L152.299 32.88H147.151Z" fill="#FF8C00"/>
<path d="M132.052 25.932C130.612 25.932 129.424 25.692 128.488 25.212C127.552 24.732 126.856 24.084 126.4 23.268C125.968 22.452 125.752 21.552 125.752 20.568C125.752 19.464 126.028 18.492 126.58 17.652C127.156 16.812 128.02 16.164 129.172 15.708C130.324 15.228 131.776 14.988 133.528 14.988H138.028C138.028 14.1 137.896 13.368 137.632 12.792C137.392 12.216 137.008 11.796 136.48 11.532C135.976 11.244 135.328 11.1 134.536 11.1C133.6 11.1 132.796 11.304 132.124 11.712C131.476 12.12 131.068 12.768 130.9 13.656H126.184C126.328 12.336 126.76 11.196 127.48 10.236C128.224 9.27599 129.196 8.53199 130.396 8.00399C131.62 7.47599 133 7.21199 134.536 7.21199C136.264 7.21199 137.752 7.49999 139 8.07599C140.248 8.62799 141.208 9.45599 141.88 10.56C142.552 11.64 142.888 12.96 142.888 14.52V25.5H138.82L138.316 22.728H138.208C137.872 23.256 137.488 23.724 137.056 24.132C136.624 24.516 136.156 24.84 135.652 25.104C135.148 25.368 134.584 25.572 133.96 25.716C133.36 25.86 132.724 25.932 132.052 25.932ZM133.564 22.188C134.212 22.188 134.788 22.08 135.292 21.864C135.796 21.624 136.216 21.312 136.552 20.928C136.912 20.544 137.188 20.1 137.38 19.596C137.596 19.068 137.74 18.528 137.812 17.976H134.068C133.324 17.976 132.712 18.072 132.232 18.264C131.776 18.432 131.44 18.684 131.224 19.02C131.008 19.332 130.9 19.704 130.9 20.136C130.9 20.568 131.008 20.94 131.224 21.252C131.44 21.564 131.752 21.804 132.16 21.972C132.568 22.116 133.036 22.188 133.564 22.188Z" fill="#FF8C00"/>
<path d="M96.459 25.5V0.299988H102.723L110.067 16.752H110.175L117.447 0.299988H123.675V25.5H118.815V8.07599H118.707L112.407 21.9H107.691L101.427 8.07599H101.319V25.5H96.459Z" fill="#FF8C00"/>
<path d="M79.1853 25.932C77.3613 25.932 75.7413 25.548 74.3253 24.78C72.9333 24.012 71.8413 22.932 71.0493 21.54C70.2573 20.148 69.8613 18.552 69.8613 16.752C69.8613 14.88 70.2453 13.236 71.0133 11.82C71.8053 10.38 72.8973 9.25199 74.2893 8.43599C75.7053 7.61999 77.3493 7.21199 79.2213 7.21199C80.9973 7.21199 82.5573 7.59599 83.9013 8.36399C85.2453 9.13199 86.3013 10.188 87.0693 11.532C87.8373 12.852 88.2213 14.352 88.2213 16.032C88.2213 16.272 88.2213 16.548 88.2213 16.86C88.2213 17.148 88.1973 17.448 88.1493 17.76H73.3173V14.772H83.2893C83.2173 13.644 82.7973 12.744 82.0293 12.072C81.2853 11.4 80.3493 11.064 79.2213 11.064C78.3813 11.064 77.6133 11.256 76.9173 11.64C76.2213 12 75.6693 12.564 75.2613 13.332C74.8533 14.076 74.6493 15.024 74.6493 16.176V17.22C74.6493 18.204 74.8413 19.056 75.2253 19.776C75.6093 20.472 76.1373 21.012 76.8093 21.396C77.5053 21.78 78.2853 21.972 79.1493 21.972C80.0373 21.972 80.7813 21.78 81.3813 21.396C81.9813 20.988 82.4373 20.472 82.7493 19.848H87.7173C87.3573 20.976 86.7813 22.008 85.9893 22.944C85.1973 23.856 84.2253 24.588 83.0733 25.14C81.9213 25.668 80.6253 25.932 79.1853 25.932Z" fill="#FF8C00"/>
<path d="M59.7964 25.932C57.9004 25.932 56.2444 25.536 54.8284 24.744C53.4364 23.928 52.3444 22.824 51.5524 21.432C50.7844 20.016 50.4004 18.396 50.4004 16.572C50.4004 14.748 50.7964 13.14 51.5884 11.748C52.4044 10.332 53.5084 9.22799 54.9004 8.43599C56.3164 7.61999 57.9484 7.21199 59.7964 7.21199C62.1004 7.21199 64.0444 7.81199 65.6284 9.01199C67.2124 10.212 68.2084 11.868 68.6164 13.98H63.4684C63.2764 13.14 62.8324 12.48 62.1364 12C61.4644 11.52 60.6724 11.28 59.7604 11.28C58.9204 11.28 58.1644 11.496 57.4924 11.928C56.8444 12.336 56.3284 12.936 55.9444 13.728C55.5604 14.52 55.3684 15.468 55.3684 16.572C55.3684 17.388 55.4764 18.12 55.6924 18.768C55.9084 19.392 56.2084 19.932 56.5924 20.388C57.0004 20.844 57.4684 21.192 57.9964 21.432C58.5244 21.672 59.1124 21.792 59.7604 21.792C60.3844 21.792 60.9484 21.696 61.4524 21.504C61.9564 21.288 62.3884 20.988 62.7484 20.604C63.1084 20.196 63.3484 19.716 63.4684 19.164H68.6164C68.2084 21.228 67.2124 22.872 65.6284 24.096C64.0444 25.32 62.1004 25.932 59.7964 25.932Z" fill="#FF8C00"/>
<path d="M38.0168 25.932C36.5768 25.932 35.3888 25.692 34.4528 25.212C33.5168 24.732 32.8208 24.084 32.3648 23.268C31.9328 22.452 31.7168 21.552 31.7168 20.568C31.7168 19.464 31.9928 18.492 32.5448 17.652C33.1208 16.812 33.9848 16.164 35.1368 15.708C36.2888 15.228 37.7408 14.988 39.4928 14.988H43.9928C43.9928 14.1 43.8608 13.368 43.5968 12.792C43.3568 12.216 42.9728 11.796 42.4448 11.532C41.9408 11.244 41.2928 11.1 40.5008 11.1C39.5648 11.1 38.7608 11.304 38.0888 11.712C37.4408 12.12 37.0328 12.768 36.8648 13.656H32.1488C32.2928 12.336 32.7248 11.196 33.4448 10.236C34.1888 9.27599 35.1608 8.53199 36.3608 8.00399C37.5848 7.47599 38.9648 7.21199 40.5008 7.21199C42.2288 7.21199 43.7168 7.49999 44.9648 8.07599C46.2128 8.62799 47.1728 9.45599 47.8448 10.56C48.5168 11.64 48.8528 12.96 48.8528 14.52V25.5H44.7848L44.2808 22.728H44.1728C43.8368 23.256 43.4528 23.724 43.0208 24.132C42.5888 24.516 42.1208 24.84 41.6168 25.104C41.1128 25.368 40.5488 25.572 39.9248 25.716C39.3248 25.86 38.6888 25.932 38.0168 25.932ZM39.5288 22.188C40.1768 22.188 40.7528 22.08 41.2568 21.864C41.7608 21.624 42.1808 21.312 42.5168 20.928C42.8768 20.544 43.1528 20.1 43.3448 19.596C43.5608 19.068 43.7048 18.528 43.7768 17.976H40.0328C39.2888 17.976 38.6768 18.072 38.1968 18.264C37.7408 18.432 37.4048 18.684 37.1888 19.02C36.9728 19.332 36.8648 19.704 36.8648 20.136C36.8648 20.568 36.9728 20.94 37.1888 21.252C37.4048 21.564 37.7168 21.804 38.1248 21.972C38.5328 22.116 39.0008 22.188 39.5288 22.188Z" fill="#FF8C00"/>
<path d="M19.7891 25.5V7.64399H23.9651L24.3971 11.424H24.5051C25.0091 10.272 25.5731 9.39599 26.1971 8.79599C26.8451 8.19599 27.5651 7.78799 28.3571 7.57199C29.1731 7.33199 30.0851 7.21199 31.0931 7.21199V12.36H29.7971C28.9811 12.36 28.2491 12.456 27.6011 12.648C26.9771 12.816 26.4371 13.104 25.9811 13.512C25.5491 13.896 25.2131 14.412 24.9731 15.06C24.7571 15.684 24.6491 16.464 24.6491 17.4V25.5H19.7891Z" fill="#FF8C00"/>
<path d="M8.23938 25.5V4.22399H0.859375V0.299988H20.4434V4.22399H13.0634V25.5H8.23938Z" fill="#FF8C00"/>
</svg>
